Deadly Detour 2011 DVDRip x264 AAC-OFFLiNE

Source: COMPLETE.PAL.DVDR-A1ky
 
http://www.imdb.com/title/tt1861307/

Taglines: A ride you won't forget

General
Complete name                            : Deadly Detour 2011 DVDRip x264 AAC-OFFLiNE.mp4
Format                                   : MPEG-4
Format profile                           : Base Media
Codec ID                                 : isom
File size                                : 700 MiB
Duration                                 : 1h 8mn
Overall bit rate mode                    : Variable
Overall bit rate                         : 1 422 Kbps
Encoded date                             : UTC 2013-02-23 07:13:15
Tagged date                              : UTC 2013-02-23 07:13:15

Video
ID                                       : 1
Format                                   : AVC
Format/Info                              : Advanced Video Codec
Format profile                           : High@L4.1
Format settings, CABAC                   : Yes
Format settings, ReFrames                : 3 frames
Codec ID                                 : avc1
Codec ID/Info                            : Advanced Video Coding
Duration                                 : 1h 8mn
Bit rate mode                            : Variable
Bit rate                                 : 1 282 Kbps
Maximum bit rate                         : 40.0 Mbps
Width                                    : 640 pixels
Height                                   : 464 pixels
Display aspect ratio                     : 1.379
Frame rate mode                          : Constant
Frame rate                               : 23.976 fps
Color space                              : YUV
Chroma subsampling                       : 4:2:0
Bit depth                                : 8 bits
Scan type                                : Progressive
Bits/(Pixel*Frame)                       : 0.180
Stream size                              : 630 MiB (90%)
Writing library                          : x264 core 129 r2245 bc13772

Audio
ID                                       : 2
Format                                   : AAC
Format/Info                              : Advanced Audio Codec
Format profile                           : LC
Codec ID                                 : 40
Duration                                 : 1h 8mn
Bit rate mode                            : Variable
Bit rate                                 : 136 Kbps
Maximum bit rate                         : 161 Kbps
Channel(s)                               : 2 channels
Channel positions                        : Front: L R
Sampling rate                            : 48.0 KHz
Compression mode                         : Lossy
Stream size                              : 67.1 MiB (10%)
Language                                 : English

IMDB: http://www.imdb.com/title/tt1861307/
 
Cast: Allie Brennan, Andy Brown, Knox Chase

Plot: When two carloads of friends were headed to Florida the only thing on their
minds were sex, booze, drugs, and rock and roll. When a case of engine trouble 
sidelines the group in rural Maryland it begins a downward spiral into heinous 
acts of killing and depravity. One by one they encounter something in the woods, 
an abomination of nature and science. These friends wanted a trip they would never
forget and that is exactly what they got when their trip turned into a... Deadly Detour. 

Screens:
 
http://www.shotpix.com/images/13943020490228251892.png
 
http://www.shotpix.com/images/02438532763565261004.png
 
http://www.shotpix.com/images/03466920258727560965.png

